<svg xmlns="http://www.w3.org/2000/svg" version="1.1" xmlns:xlink="http://www.w3.org/1999/xlink" xmlns:svgjs="http://svgjs.dev/svgjs" width="100%" height="100%" viewBox="0 0 1000 600"><rect width="1000" height="600" x="0" y="0" fill="#000000"/><g><circle r="166.66666666666666" cx="296.1191965738932" cy="318.34145103797005" fill="#6420aa" transform="matrix(0.9656048078444075,0,0,0.9656048078444075,0,-7.392026693479565)"/><path d="M263.4022447051917 393.34147952477645L263.4022447051917 393.34147952477645Q257.42977849015836 393.34147952477645 253.19843801916858 390.56782572321856L253.19843801916858 390.56782572321856Q248.096534676157 387.51073284704887 248.096534676157 381.5382666320155L248.096534676157 381.5382666320155Q248.096534676157 370.88905568588814 256.8426546927483 370.88905568588814L256.8426546927483 370.88905568588814Q259.61630849430617 370.88905568588814 261.6611189611481 372.93386615273005L261.6611189611481 372.93386615273005Q263.2605251678859 374.6749918967737 263.2605251678859 377.3069261610258L263.2605251678859 377.3069261610258Q263.2605251678859 380.80942329729953 260.62859090363384 382.99595330144734L260.62859090363384 382.99595330144734Q258.3003413621802 385.18248330559516 255.3849680233164 385.18248330559516L255.3849680233164 385.18248330559516Q252.46959468445266 385.18248330559516 250.4247842176107 382.99595330144734L250.4247842176107 382.99595330144734Q251.15362755232664 387.7941719216607 258.74574562228435 387.7941719216607L258.74574562228435 387.7941719216607Q274.0514556513191 387.7941719216607 288.91176142024966 366.2325566029808L288.91176142024966 366.2325566029808Q302.7597847798525 346.10838230554623 313.8341543378975 320.31542651587654L313.8341543378975 320.31542651587654Q295.613070969999 346.8372256402621 277.39198760210047 346.8372256402621L277.39198760210047 346.8372256402621Q262.6734013704758 346.8372256402621 255.3849680233164 338.6782294210809L255.3849680233164 338.6782294210809Q248.9670975481788 331.3897960739215 248.9670975481788 318.9994593837505L248.9670975481788 318.9994593837505Q248.9670975481788 301.7906584251797 259.75802803161207 284.88554218940726L259.75802803161207 284.88554218940726Q252.1861556098409 281.5247645904393 247.0842522668293 276.1394221728159L247.0842522668293 276.1394221728159Q241.8203837383253 270.16695595778253 241.8203837383253 263.749085482645L241.8203837383253 263.749085482645Q241.8203837383253 254.5575612059495 250.28306468030482 249.61762304843035L250.28306468030482 249.61762304843035Q256.55921561813653 245.81144118935822 265.30533563472784 245.81144118935822L265.30533563472784 245.81144118935822Q280.30736094096426 245.81144118935822 291.3817304990092 255.59008926346374L291.3817304990092 255.59008926346374Q312.6801523912639 243.34147211059863 332.5006419659002 243.34147211059863L332.5006419659002 243.34147211059863Q350.4180406110004 243.34147211059863 350.4180406110004 252.67471592459998L350.4180406110004 252.67471592459998Q350.4180406110004 262.1496792759072 334.8288915073539 273.36576837125807L334.8288915073539 273.36576837125807Q313.24703054048746 288.6714784002928 281.62332807309025 288.6714784002928L281.62332807309025 288.6714784002928Q279.1533589943307 288.6714784002928 276.8048638046904 288.5297588629869Q274.4766142632367 288.388039325681 272.29008425908887 288.08435460288274L272.29008425908887 288.08435460288274Q259.8997475689179 307.47968556560136 259.8997475689179 323.06883466924785L259.8997475689179 323.06883466924785Q259.8997475689179 332.5437980205551 264.8599313746236 337.50398182626077L264.8599313746236 337.50398182626077Q269.9618347176352 342.60588516927237 277.39198760210047 342.60588516927237L277.39198760210047 342.60588516927237Q288.46635716014544 342.60588516927237 299.560972366377 332.40207848324917L299.560972366377 332.40207848324917Q306.4040014534322 325.98420800811164 315.73724526743354 312.86502798322465L315.73724526743354 312.86502798322465L316.3243690648436 311.852745573897Q316.74952767676126 305.8802793588636 316.8912472140671 305.57659463606535L316.8912472140671 305.57659463606535Q317.1949319368655 303.24834509461164 317.7820557342755 301.2845172205159Q318.348933883499 299.3206893464202 319.2397424037074 297.41759841688406L319.2397424037074 297.41759841688406Q322.1551157425711 291.89053646195487 326.2244910280685 291.89053646195487L326.2244910280685 291.89053646195487Q330.31411196175236 291.89053646195487 330.31411196175236 296.6887550821682L330.31411196175236 296.6887550821682Q330.31411196175236 301.9323779624856 324.48336528402484 309.0790917723391L324.48336528402484 309.0790917723391Q323.7545219493089 310.11161982985334 322.5802743544888 311.2656217764869Q321.4262724078552 312.43986937130705 319.8066205529309 313.897556040739L319.8066205529309 313.897556040739Q319.077777218215 314.1809951153507 317.6200905487831 318.5540551236463L317.6200905487831 318.5540551236463Q314.8666823954117 327.4418946775435 312.315730723906 336.4916994169331Q309.7647790524002 345.52125850813616 306.8494057135364 354.4090980620333L306.8494057135364 354.4090980620333Q303.4886281145684 364.4711852107506 298.0223031041989 371.9013380952158Q292.55597809382937 379.3517366278677 285.5509838212817 384.5953595081852L285.5509838212817 384.5953595081852Q274.0514556513191 393.34147952477645 263.4022447051917 393.34147952477645ZM282.0687323331944 285.47266598681733L282.0687323331944 285.47266598681733Q288.91176142024966 285.47266598681733 295.9167556927973 284.1566988546913L295.9167556927973 284.1566988546913Q305.67515811871624 282.25360792515517 314.9274193399714 278.3259521769638Q324.1796805612265 274.39829642877226 332.784081040512 268.1221454909406L332.784081040512 268.1221454909406Q334.97061104465973 266.5227392842029 336.9344389187555 264.61964835466677Q338.91851244103776 262.7368030733173 340.80135772238725 260.38830788367704L340.80135772238725 260.38830788367704Q344.8909786560712 255.28640454066544 344.8909786560712 251.50046832977986L344.8909786560712 251.50046832977986Q344.8909786560712 246.11512591215651 335.84117391668156 246.11512591215651L335.84117391668156 246.11512591215651Q316.02068434204534 246.11512591215651 296.64559902751324 261.11715121839296L296.64559902751324 261.11715121839296Q299.8444114409888 264.9233330774651 301.74750237052484 269.29639308576077L301.74750237052484 269.29639308576077Q302.1726609824425 270.16695595778253 301.0186590358089 270.45039503239434L301.0186590358089 270.45039503239434L300.5732547757047 270.45039503239434Q299.560972366377 270.45039503239434 299.1155681062728 269.72155169767836L299.1155681062728 269.72155169767836Q297.51616189953506 267.25158261891875 294.1553843005671 263.020242147929L294.1553843005671 263.020242147929Q283.08101474252214 272.35348596193035 274.4766142632367 284.88554218940726L274.4766142632367 284.88554218940726Q276.5214247300787 285.16898126401895 278.34353306686853 285.33094644951143Q280.16564140365836 285.47266598681733 282.0687323331944 285.47266598681733ZM262.08627757306573 281.3830450531334L262.08627757306573 281.3830450531334Q272.148364721783 267.53502169353055 288.18291808553374 257.47293454481326L288.18291808553374 257.47293454481326Q276.9668289901829 248.8887797137144 264.8599313746236 248.8887797137144L264.8599313746236 248.8887797137144Q258.442060899486 248.8887797137144 253.78556181657865 251.94587258988403L253.78556181657865 251.94587258988403Q247.95481513885113 255.7318088007696 247.95481513885113 263.3036812225408L247.95481513885113 263.3036812225408Q247.95481513885113 275.26885930079413 262.08627757306573 281.3830450531334Z " fill="#f72798" transform="matrix(0.9656048078444075,0,0,0.9656048078444075,0,-7.392026693479565)"/><path d="M567.7010728301917 393.34147952477645L567.7010728301917 393.34147952477645Q561.7286066151582 393.34147952477645 557.4972661441686 390.56782572321856L557.4972661441686 390.56782572321856Q552.395362801157 387.51073284704887 552.395362801157 381.5382666320155L552.395362801157 381.5382666320155Q552.395362801157 370.88905568588814 561.1414828177483 370.88905568588814L561.1414828177483 370.88905568588814Q563.9151366193062 370.88905568588814 565.9599470861481 372.93386615273005L565.9599470861481 372.93386615273005Q567.5593532928858 374.6749918967737 567.5593532928858 377.3069261610258L567.5593532928858 377.3069261610258Q567.5593532928858 380.80942329729953 564.9274190286338 382.99595330144734L564.9274190286338 382.99595330144734Q562.5991694871801 385.18248330559516 559.6837961483163 385.18248330559516L559.6837961483163 385.18248330559516Q556.7684228094527 385.18248330559516 554.7236123426107 382.99595330144734L554.7236123426107 382.99595330144734Q555.4524556773266 387.7941719216607 563.0445737472844 387.7941719216607L563.0445737472844 387.7941719216607Q578.3502837763191 387.7941719216607 593.2105895452496 366.2325566029808L593.2105895452496 366.2325566029808Q607.0586129048525 346.10838230554623 618.1329824628974 320.31542651587654L618.1329824628974 320.31542651587654Q599.911899094999 346.8372256402621 581.6908157271005 346.8372256402621L581.6908157271005 346.8372256402621Q566.9722294954759 346.8372256402621 559.6837961483163 338.6782294210809L559.6837961483163 338.6782294210809Q553.2659256731788 331.3897960739215 553.2659256731788 318.9994593837505L553.2659256731788 318.9994593837505Q553.2659256731788 301.7906584251797 564.056856156612 284.88554218940726L564.056856156612 284.88554218940726Q556.4849837348409 281.5247645904393 551.3830803918293 276.1394221728159L551.3830803918293 276.1394221728159Q546.1192118633253 270.16695595778253 546.1192118633253 263.749085482645L546.1192118633253 263.749085482645Q546.1192118633253 254.5575612059495 554.5818928053047 249.61762304843035L554.5818928053047 249.61762304843035Q560.8580437431365 245.81144118935822 569.6041637597277 245.81144118935822L569.6041637597277 245.81144118935822Q584.6061890659641 245.81144118935822 595.6805586240092 255.59008926346374L595.6805586240092 255.59008926346374Q616.9789805162638 243.34147211059863 636.7994700909002 243.34147211059863L636.7994700909002 243.34147211059863Q654.7168687360004 243.34147211059863 654.7168687360004 252.67471592459998L654.7168687360004 252.67471592459998Q654.7168687360004 262.1496792759072 639.1277196323539 273.36576837125807L639.1277196323539 273.36576837125807Q617.5458586654875 288.6714784002928 585.9221561980903 288.6714784002928L585.9221561980903 288.6714784002928Q583.4521871193306 288.6714784002928 581.1036919296904 288.5297588629869Q578.7754423882367 288.388039325681 576.5889123840889 288.08435460288274L576.5889123840889 288.08435460288274Q564.198575693918 307.47968556560136 564.198575693918 323.06883466924785L564.198575693918 323.06883466924785Q564.198575693918 332.5437980205551 569.1587594996236 337.50398182626077L569.1587594996236 337.50398182626077Q574.2606628426352 342.60588516927237 581.6908157271005 342.60588516927237L581.6908157271005 342.60588516927237Q592.7651852851454 342.60588516927237 603.859800491377 332.40207848324917L603.859800491377 332.40207848324917Q610.7028295784322 325.98420800811164 620.0360733924335 312.86502798322465L620.0360733924335 312.86502798322465L620.6231971898436 311.852745573897Q621.0483558017612 305.8802793588636 621.1900753390671 305.57659463606535L621.1900753390671 305.57659463606535Q621.4937600618655 303.24834509461164 622.0808838592754 301.2845172205159Q622.647762008499 299.3206893464202 623.5385705287074 297.41759841688406L623.5385705287074 297.41759841688406Q626.4539438675711 291.89053646195487 630.5233191530684 291.89053646195487L630.5233191530684 291.89053646195487Q634.6129400867524 291.89053646195487 634.6129400867524 296.6887550821682L634.6129400867524 296.6887550821682Q634.6129400867524 301.9323779624856 628.7821934090248 309.0790917723391L628.7821934090248 309.0790917723391Q628.0533500743088 310.11161982985334 626.8791024794888 311.2656217764869Q625.7251005328552 312.43986937130705 624.1054486779309 313.897556040739L624.1054486779309 313.897556040739Q623.3766053432149 314.1809951153507 621.9189186737831 318.5540551236463L621.9189186737831 318.5540551236463Q619.1655105204118 327.4418946775435 616.614558848906 336.4916994169331Q614.0636071774002 345.52125850813616 611.1482338385364 354.4090980620333L611.1482338385364 354.4090980620333Q607.7874562395684 364.4711852107506 602.321131229199 371.9013380952158Q596.8548062188293 379.3517366278677 589.8498119462818 384.5953595081852L589.8498119462818 384.5953595081852Q578.3502837763191 393.34147952477645 567.7010728301917 393.34147952477645ZM586.3675604581945 285.47266598681733L586.3675604581945 285.47266598681733Q593.2105895452496 285.47266598681733 600.2155838177973 284.1566988546913L600.2155838177973 284.1566988546913Q609.9739862437162 282.25360792515517 619.2262474649714 278.3259521769638Q628.4785086862265 274.39829642877226 637.0829091655119 268.1221454909406L637.0829091655119 268.1221454909406Q639.2694391696598 266.5227392842029 641.2332670437554 264.61964835466677Q643.2173405660377 262.7368030733173 645.1001858473873 260.38830788367704L645.1001858473873 260.38830788367704Q649.1898067810712 255.28640454066544 649.1898067810712 251.50046832977986L649.1898067810712 251.50046832977986Q649.1898067810712 246.11512591215651 640.1400020416816 246.11512591215651L640.1400020416816 246.11512591215651Q620.3195124670453 246.11512591215651 600.9444271525132 261.11715121839296L600.9444271525132 261.11715121839296Q604.1432395659888 264.9233330774651 606.0463304955248 269.29639308576077L606.0463304955248 269.29639308576077Q606.4714891074425 270.16695595778253 605.3174871608089 270.45039503239434L605.3174871608089 270.45039503239434L604.8720829007046 270.45039503239434Q603.859800491377 270.45039503239434 603.4143962312728 269.72155169767836L603.4143962312728 269.72155169767836Q601.8149900245351 267.25158261891875 598.4542124255671 263.020242147929L598.4542124255671 263.020242147929Q587.379842867522 272.35348596193035 578.7754423882367 284.88554218940726L578.7754423882367 284.88554218940726Q580.8202528550787 285.16898126401895 582.6423611918685 285.33094644951143Q584.4644695286584 285.47266598681733 586.3675604581945 285.47266598681733ZM566.3851056980657 281.3830450531334L566.3851056980657 281.3830450531334Q576.4471928467831 267.53502169353055 592.4817462105336 257.47293454481326L592.4817462105336 257.47293454481326Q581.2656571151829 248.8887797137144 569.1587594996236 248.8887797137144L569.1587594996236 248.8887797137144Q562.740889024486 248.8887797137144 558.0843899415786 251.94587258988403L558.0843899415786 251.94587258988403Q552.253643263851 255.7318088007696 552.253643263851 263.3036812225408L552.253643263851 263.3036812225408Q552.253643263851 275.26885930079413 566.3851056980657 281.3830450531334ZM660.1224568018102 289.70400645780705L660.1224568018102 289.70400645780705Q655.1622729961045 289.70400645780705 655.1622729961045 284.88554218940726L655.1622729961045 284.88554218940726Q655.1622729961045 280.06707792100735 659.818772079012 280.06707792100735L659.818772079012 280.06707792100735Q664.7789558847177 280.06707792100735 664.7789558847177 284.88554218940726L664.7789558847177 284.88554218940726Q664.7789558847177 289.70400645780705 660.1224568018102 289.70400645780705ZM647.5904005743333 346.10838230554623L640.3019672271739 346.10838230554623Q636.0706267561842 346.10838230554623 636.0706267561842 341.8770418345564L636.0706267561842 341.8770418345564Q636.0706267561842 339.265353218491 637.8117525002278 334.7303280247029L637.8117525002278 334.7303280247029Q641.5976887111135 325.41732985888814 644.9584663100813 317.54177271431865Q648.3192439090493 309.66621556974917 651.2346172479131 303.24834509461164L651.2346172479131 303.24834509461164Q651.6597758598307 302.51950175989566 651.6597758598307 301.6489388878739L651.6597758598307 301.6489388878739Q651.6597758598307 299.6041284210319 649.7769305784813 297.27587887957816L649.7769305784813 297.27587887957816L657.7942072603565 297.13415934227237Q661.8635825458539 297.13415934227237 661.8635825458539 299.1789698091143L661.8635825458539 299.1789698091143Q661.8635825458539 299.7458479583378 661.5801434712421 300.41395434849403Q661.2764587484438 301.0618150904638 660.8513001365262 302.23606268528397L660.8513001365262 302.23606268528397L647.428435388841 333.27264135527105Q645.4038705701855 338.09110562367084 645.4038705701855 341.4518832226388L645.4038705701855 341.4518832226388Q645.4038705701855 344.9341347107261 647.5904005743333 346.10838230554623L647.5904005743333 346.10838230554623ZM674.841043033435 346.10838230554623L674.841043033435 346.10838230554623Q665.3660796821277 346.10838230554623 665.3660796821277 335.7628560822171L665.3660796821277 335.7628560822171Q665.3660796821277 333.7180456153752 665.7305013494856 331.5315156112274Q666.0949230168436 329.3449856070796 666.9654858888655 327.1584556029318L666.9654858888655 327.1584556029318Q674.6993234961291 306.7508422308854 680.0846659137524 293.9151012806103L680.0846659137524 293.9151012806103L670.6097025624451 293.9151012806103L672.3710739546754 290.7162888671347L681.4006330458784 290.7162888671347L684.9031301821522 280.51248218111164Q686.7859754635017 275.12713976348823 688.1019425956277 274.094611705974L688.1019425956277 274.094611705974Q689.134470653142 273.36576837125807 692.7786873267216 273.36576837125807L692.7786873267216 273.36576837125807L699.0345926163668 273.5074879085639Q696.1192192775031 275.9977026355101 694.6615326080712 279.50019977178385L694.6615326080712 279.50019977178385L689.863313987858 290.7162888671347L700.9376835459029 290.7162888671347L699.1763121536727 293.9151012806103L688.5473468557319 293.9151012806103Q687.5148187982177 296.2635964702505 686.5835189816362 298.5918460117042Q685.6319735168681 300.9200955531579 684.457725922048 303.39006463191754L684.457725922048 303.39006463191754Q681.4006330458784 310.11161982985334 679.2141030417306 316.0840860448868L679.2141030417306 316.0840860448868Q676.5821687774785 322.92711513194195 675.063745163487 327.88729893764764Q673.5250759013089 332.84748274335345 673.2416368266972 335.7628560822171L673.2416368266972 335.7628560822171Q672.6545130292872 342.90956989207064 677.0275730375827 342.90956989207064L677.0275730375827 342.90956989207064Q681.1171939712667 342.90956989207064 686.9479406489942 334.1634498754794L686.9479406489942 334.1634498754794L688.6890663930378 336.18801469413484Q681.6840721204901 346.10838230554623 674.841043033435 346.10838230554623ZM727.3177631329827 355.29990658224165L727.3177631329827 355.29990658224165Q709.6838035624942 355.29990658224165 699.7634359510828 346.978945177568L699.7634359510828 346.978945177568Q690.8755963971856 339.5487922931028 690.8755963971856 327.88729893764764L690.8755963971856 327.88729893764764Q690.8755963971856 314.9098384500667 701.6665268806188 304.56431222673757L701.6665268806188 304.56431222673757Q713.6114593106856 293.04453840858844 733.1485098107102 291.1616931272389L733.1485098107102 291.1616931272389Q731.5491036039724 288.8131979375987 730.3748560091523 286.2015093215332L730.3748560091523 286.2015093215332Q726.3054807236549 286.0597897842274 722.4992988645828 285.53340293137694Q718.7133626536972 285.02726172671305 715.3728307029158 284.2984183919972L715.3728307029158 284.2984183919972Q703.2659330873566 281.3830450531334 696.5646235376073 274.96517457799587L696.5646235376073 274.96517457799587Q690.4301921370815 268.9927083629624 690.4301921370815 262.00795973860136L690.4301921370815 262.00795973860136Q690.4301921370815 254.13240259403187 698.0223102070391 248.72681452822198L698.0223102070391 248.72681452822198Q705.5941826288104 243.6249111852104 717.1139564469595 243.6249111852104L717.1139564469595 243.6249111852104Q722.6612640500753 243.6249111852104 728.3300455423104 244.88014137277673Q734.019072682732 246.11512591215651 739.7080998231536 248.8887797137144L739.7080998231536 248.8887797137144Q740.1535040832578 249.03049925102027 740.1535040832578 249.75934258573622L740.1535040832578 249.75934258573622Q740.1535040832578 251.21702925516811 738.8375369511318 250.62990545775804L738.8375369511318 250.62990545775804Q728.1883260050045 245.52800211474647 717.9845193189813 245.52800211474647L717.9845193189813 245.52800211474647Q708.9549602277782 245.52800211474647 703.5493721619683 250.04278166034797L703.5493721619683 250.04278166034797Q698.164029744345 254.5575612059495 698.164029744345 261.8459945531089L698.164029744345 261.8459945531089Q698.164029744345 268.4055845655523 702.9824940127448 273.9528921686681L702.9824940127448 273.9528921686681Q708.509555967674 280.06707792100735 717.9845193189813 282.25360792515517L717.9845193189813 282.25360792515517Q720.7581731205391 282.84073172256524 723.6735464594029 283.2861359826695Q726.5889197982667 283.7112945945871 729.6460126744364 283.8732597800796L729.6460126744364 283.8732597800796Q729.0588888770262 281.5247645904393 729.0588888770262 278.4676717142696L729.0588888770262 278.4676717142696Q729.0588888770262 268.1221454909406 737.3798502816999 259.82142973445355L737.3798502816999 259.82142973445355Q747.2799722449248 249.9010621230421 765.5010556128233 246.84396924687246L765.5010556128233 246.84396924687246Q767.4041465423593 246.54028452407417 769.2262548791492 246.39856498676826Q771.048363215939 246.25684544946242 772.7894889599827 246.25684544946242L772.7894889599827 246.25684544946242Q780.6650461045522 246.25684544946242 785.6252299102579 249.61762304843035L785.6252299102579 249.61762304843035Q790.5854137159636 252.81643546190585 790.5854137159636 258.20177787952923L790.5854137159636 258.20177787952923Q790.5854137159636 266.66445882150873 778.7822008232026 274.96517457799587L778.7822008232026 274.96517457799587Q763.7599298687796 285.33094644951143 736.7927264842899 286.2015093215332L736.7927264842899 286.2015093215332Q736.9344460215957 288.5297588629869 737.96697407911 290.7162888671347L737.96697407911 290.7162888671347Q740.4369431578696 290.5745693298288 742.9069122366291 290.63530627438854Q745.3971269635753 290.7162888671347 747.8670960423349 290.8580084044406L747.8670960423349 290.8580084044406Q753.1107189226523 291.3034126645448 753.1107189226523 294.80590980081865L753.1107189226523 294.80590980081865Q753.1107189226523 298.14644175160004 747.4419374304172 298.14644175160004L747.4419374304172 298.14644175160004Q739.9915388977654 298.14644175160004 734.8896355547538 293.04453840858844L734.8896355547538 293.04453840858844Q721.4870164552551 295.23106841273625 712.8826159759697 306.6091226935796L712.8826159759697 306.6091226935796Q705.1690240168926 317.2380879915204 705.1690240168926 329.79038986718376L705.1690240168926 329.79038986718376Q705.1690240168926 339.99419655320696 710.5543664345159 346.25010184285213L710.5543664345159 346.25010184285213Q716.3851131122435 353.39681565270564 727.3177631329827 353.39681565270564L727.3177631329827 353.39681565270564Q734.3227574055303 353.39681565270564 740.5786626951754 350.48144231384185Q746.8548136330071 347.56606897497807 751.8149974387129 342.90956989207064Q756.7549355962319 338.23282516097674 759.6095719905361 333.13092181796515Q762.4439627366536 328.02901847495355 762.4439627366536 323.6559584666579L762.4439627366536 323.6559584666579Q762.4439627366536 319.58658318116056 759.4678524532302 316.8736663241624Q756.4714965216202 314.1809951153507 749.7701869718709 314.1809951153507L749.7701869718709 314.1809951153507Q745.2554074262694 314.1809951153507 740.0725214905116 316.3067881749389Q734.8896355547538 318.4123355863404 730.0914169345406 321.6921305925622Q725.2729526661407 324.97192559878397 721.7704555298669 328.4744227350577Q718.2882040417796 331.9769198713316 717.1139564469595 334.588608487397L717.1139564469595 334.588608487397Q716.8305173723477 335.45917135941886 715.9397088521393 335.03401274750127L715.9397088521393 335.03401274750127Q715.0691459801176 334.588608487397 715.3728307029158 333.7180456153752L715.3728307029158 333.7180456153752Q716.9722369096536 329.93210940448967 720.6164535832332 325.98420800811164Q724.260670256813 322.0565522599202 729.2208540625187 318.5540551236463Q734.1607922200378 315.05155798737246 739.8498193604595 312.94601057597094Q745.5388465008812 310.8404631645693 751.3695931786086 310.8404631645693L751.3695931786086 310.8404631645693Q762.4439627366536 310.8404631645693 767.4041465423593 314.76811891276077Q772.3643303480651 318.6957746609522 772.3643303480651 324.243082264068L772.3643303480651 324.243082264068Q772.3643303480651 329.2032660697737 769.0035527490971 334.588608487397Q765.6630207983158 339.99419655320696 759.6095719905361 344.7316782288606Q753.5561231827564 349.4691599045142 745.3161443708291 352.38453324337786Q737.0761655589016 355.29990658224165 727.3177631329827 355.29990658224165ZM736.7927264842899 283.7112945945871L736.7927264842899 283.7112945945871Q759.5285893977898 282.55729264795355 774.8342994268246 271.9080817018262L774.8342994268246 271.9080817018262Q787.2246361169956 263.1619616852349 787.2246361169956 256.7440912100973L787.2246361169956 256.7440912100973Q787.2246361169956 250.18450119765384 776.5956708190548 250.18450119765384L776.5956708190548 250.18450119765384Q762.1605236620419 250.18450119765384 748.7376589143566 262.1496792759072L748.7376589143566 262.1496792759072Q737.6632893563117 271.9080817018262 736.7927264842899 283.7112945945871ZM814.4955242242836 346.3918213801579L814.4955242242836 346.3918213801579Q811.2764661626217 346.3918213801579 809.2316556957796 344.5089760988085L809.2316556957796 344.5089760988085Q806.316282356916 342.0187613718623 806.316282356916 336.18801469413484L806.316282356916 336.18801469413484Q806.316282356916 332.40207848324917 807.6322494890419 327.60385986303595L807.6322494890419 327.60385986303595Q802.6720656833362 335.90457561952303 797.2867232657129 341.14819849984053L797.2867232657129 341.14819849984053Q791.7394156625971 346.25010184285213 787.3663556543015 346.25010184285213L787.3663556543015 346.25010184285213Q783.5804194434158 346.25010184285213 781.393889439268 342.90956989207064L781.393889439268 342.90956989207064Q779.0656398978144 339.6905118304086 779.0656398978144 334.0014846899869L779.0656398978144 334.0014846899869Q779.0656398978144 320.15346133038406 791.4559765879853 305.43487509875945L791.4559765879853 305.43487509875945Q793.5007870548272 302.96490601999983 796.1124756708928 300.9200955531579Q798.7444099351447 298.875285086316 801.8015028113144 297.27587887957816L801.8015028113144 297.27587887957816Q808.0776537491461 294.0770664661027 813.9084004268736 294.0770664661027L813.9084004268736 294.0770664661027Q821.0551142367271 294.0770664661027 825.2662090595304 298.7335655490101L825.2662090595304 298.7335655490101Q826.2987371170447 299.7458479583378 826.2987371170447 301.0618150904638L826.2987371170447 301.0618150904638Q826.2987371170447 303.5520298174099 823.6668028527927 302.96490601999983L823.6668028527927 302.96490601999983Q822.2091161833607 297.72128313968244 816.8237737657373 297.72128313968244L816.8237737657373 297.72128313968244Q810.6893423652116 297.72128313968244 802.3886266087245 306.3054379707812L802.3886266087245 306.3054379707812Q799.4732532698607 309.52449603244327 796.8413190056087 312.94601057597094Q794.2296303895432 316.3675251194985 791.9013808480895 320.15346133038406L791.9013808480895 320.15346133038406Q785.6252299102579 330.6609527392055 785.6252299102579 337.2205427516491L785.6252299102579 337.2205427516491Q785.6252299102579 342.1807265573548 789.4111661211434 342.1807265573548L789.4111661211434 342.1807265573548Q793.6425065921331 342.1807265573548 799.1898141952489 335.7628560822171L799.1898141952489 335.7628560822171Q802.2469070714186 332.2603589459434 805.4457194848941 327.1584556029318Q808.6647775465561 322.0565522599202 812.1470290346434 315.35524271017084L812.1470290346434 315.35524271017084Q813.6047157040753 312.58158890861296 814.7789632988954 310.8404631645693Q815.9532108937155 309.0790917723391 816.6820542284315 308.20852890031733L816.6820542284315 308.20852890031733Q819.0103037698852 305.8802793588636 822.2091161833607 306.0219988961695L822.2091161833607 306.0219988961695L825.1244895222244 306.4674031562737Q827.0275804517605 306.8925617681913 828.3435475838866 306.6091226935796L828.3435475838866 306.6091226935796Q827.0275804517605 307.9250898257055 825.2054721149707 310.75948057182313Q823.3833637781809 313.5938713179406 821.0551142367271 318.1288965117287L821.0551142367271 318.1288965117287Q818.5648995097811 322.92711513194195 816.9654933030432 326.87501652832Q815.3660870963056 330.80267227651143 814.7789632988954 333.8597651526811L814.7789632988954 333.8597651526811Q814.4955242242836 335.31745182211296 814.3335590387912 336.5524363614927Q814.1918395014854 337.80766654905915 814.1918395014854 338.8199489583868L814.1918395014854 338.8199489583868Q814.1918395014854 342.60588516927237 816.2366499683274 342.60588516927237L816.2366499683274 342.60588516927237Q819.152023307191 342.60588516927237 824.2539266502026 336.18801469413484L824.2539266502026 336.18801469413484L824.8410504476128 335.45917135941886L826.8858609144547 336.7751384915449L826.2987371170447 337.6457013635667Q820.3262709020113 346.3918213801579 814.4955242242836 346.3918213801579ZM843.4872924274289 346.6955061029563L843.4872924274289 346.6955061029563Q836.1988590802694 346.6955061029563 832.271203332078 342.3224460946607L832.271203332078 342.3224460946607Q829.0723909186025 338.6782294210809 829.0723909186025 333.5763260780693L829.0723909186025 333.5763260780693Q829.0723909186025 326.1461731936041 833.7288900015099 326.1461731936041L833.7288900015099 326.1461731936041Q835.4700157455536 326.1461731936041 836.9277024149853 327.4418946775435L836.9277024149853 327.4418946775435Q838.3853890844173 328.8995813469754 838.3853890844173 330.80267227651143L838.3853890844173 330.80267227651143Q838.3853890844173 331.9769198713316 837.8185109351938 332.70576320604755L837.8185109351938 332.70576320604755Q835.9154200056578 335.03401274750127 835.9154200056578 337.80766654905915L835.9154200056578 337.80766654905915Q835.9154200056578 340.56107470243046 837.6565457497013 342.3224460946607L837.6565457497013 342.3224460946607Q839.5596366792374 344.2052913760101 842.4750100181012 344.2052913760101L842.4750100181012 344.2052913760101Q845.5321028942708 344.2052913760101 848.0223176212169 342.1807265573548L848.0223176212169 342.1807265573548Q851.3628495719984 339.1033880329985 851.3628495719984 333.7180456153752L851.3628495719984 333.7180456153752Q851.3628495719984 329.0615465324678 848.8928804932387 323.2307998547403L848.8928804932387 323.2307998547403Q847.8603524357245 321.7731131853084 846.4836483590389 319.4246179956682Q845.1069442823532 317.0963684542145 843.345572890123 313.897556040739L843.345572890123 313.897556040739Q842.3332904807953 312.1361846485088 841.9688688134374 310.31407631171896Q841.6044471460793 308.491967974929 841.6044471460793 306.7508422308854L841.6044471460793 306.7508422308854Q841.6044471460793 300.6366564785461 846.1192266916809 296.99243980496647L846.1192266916809 296.99243980496647Q850.7757257745883 293.18625794589434 858.0641591217477 293.18625794589434L858.0641591217477 293.18625794589434Q860.1089695885896 293.18625794589434 862.0727974626853 293.6316622059985Q864.0568709849676 294.0770664661027 865.6562771917054 295.23106841273625L865.6562771917054 295.23106841273625Q868.9968091424868 297.72128313968244 868.9968091424868 301.3654998132621L868.9968091424868 301.3654998132621Q868.9968091424868 302.96490601999983 868.4299309932633 304.2808731521259L868.4299309932633 304.2808731521259Q867.1139638611373 308.06680936301143 862.7409038528416 308.06680936301143L862.7409038528416 308.06680936301143Q857.9224395844418 308.06680936301143 857.9224395844418 303.10662555730573L857.9224395844418 303.10662555730573Q857.9224395844418 301.6489388878739 858.3678438445461 300.6366564785461L858.3678438445461 300.6366564785461Q858.7930024564637 299.1789698091143 861.5666562580215 297.72128313968244L861.5666562580215 297.72128313968244Q860.5543738486938 295.8181922101463 857.7807200471359 295.8181922101463L857.7807200471359 295.8181922101463Q855.3107509683764 295.8181922101463 854.1365033735563 296.99243980496647L854.1365033735563 296.99243980496647Q850.6340062372824 300.04953268113604 850.6340062372824 304.7060317640435L850.6340062372824 304.7060317640435Q850.6340062372824 307.9250898257055 852.3953776295125 311.7110260365912L852.3953776295125 311.7110260365912Q852.6788167041243 312.29814983400115 858.0641591217477 320.88230466510004L858.0641591217477 320.88230466510004Q861.7083757953274 326.7130513428276 861.7083757953274 330.6609527392055L861.7083757953274 330.6609527392055Q861.7083757953274 336.9168580288507 855.8776291175999 341.7353222972506L855.8776291175999 341.7353222972506Q850.0468824398723 346.6955061029563 843.4872924274289 346.6955061029563ZM881.3871458326578 346.6955061029563L881.3871458326578 346.6955061029563Q875.7183643404227 346.6955061029563 871.6287434067387 343.05128942937654L871.6287434067387 343.05128942937654Q869.442213402591 341.00647896253463 868.490667937823 338.3138077537229Q867.5391224730549 335.62113654491134 867.5391224730549 332.1186394086375L867.5391224730549 332.1186394086375Q867.5391224730549 318.6957746609522 878.6337376792865 305.43487509875945L878.6337376792865 305.43487509875945Q887.9467358451012 294.2187860034086 898.0088229938185 294.2187860034086L898.0088229938185 294.2187860034086Q901.3696005927865 294.2187860034086 903.6978501342402 295.9599117474522L903.6978501342402 295.9599117474522Q906.1678192129998 298.00472221429413 906.1678192129998 301.2035346277696L906.1678192129998 301.2035346277696Q906.1678192129998 309.220811309645 895.538853915059 317.2380879915204L895.538853915059 317.2380879915204Q892.1780763160909 319.72830271846647 886.6510143611617 321.611147999816L886.6510143611617 321.611147999816Q880.516582960636 323.6559584666579 877.7429291590781 323.6559584666579L877.7429291590781 323.6559584666579Q875.7183643404227 328.6161422723636 875.7183643404227 334.1634498754794L875.7183643404227 334.1634498754794Q875.7183643404227 343.6384132267866 882.7031129647838 343.6384132267866L882.7031129647838 343.6384132267866Q891.8946372414792 343.6384132267866 899.9119139233546 331.6732351485333L899.9119139233546 331.6732351485333L900.4990377207646 330.80267227651143L902.9690067995243 331.8149546858391L902.52360253942 332.70576320604755Q898.8793858658403 339.99419655320696 893.3523239109111 343.33472850398834Q887.8050163077953 346.6955061029563 881.3871458326578 346.6955061029563ZM878.6337376792865 321.1859893878983L878.6337376792865 321.1859893878983Q881.103706758046 321.1859893878983 885.4767667663416 319.58658318116056L885.4767667663416 319.58658318116056Q887.9467358451012 318.5540551236463 890.2142484419953 317.40005317701275Q892.4817610388893 316.2258055821926 894.222886782933 314.76811891276077L894.222886782933 314.76811891276077Q902.2401634648082 308.06680936301143 902.2401634648082 300.6366564785461L902.2401634648082 300.6366564785461Q902.2401634648082 297.41759841688406 899.9119139233546 297.41759841688406L899.9119139233546 297.41759841688406Q895.8222929896707 297.41759841688406 887.5215772331836 307.47968556560136L887.5215772331836 307.47968556560136Q883.2902367621939 312.58158890861296 878.6337376792865 321.1859893878983Z " fill="#f72798" transform="matrix(0.9656048078444075,0,0,0.9656048078444075,0,-7.392026693479565)"/></g></svg>